<svg xmlns="http://www.w3.org/2000/svg" width="120" height="120" viewBox="0 0 120 120">
  <defs>
    <linearGradient id="logoGrad" x1="0%" y1="0%" x2="100%" y2="100%">
      <stop offset="0%" style="stop-color:#ef709b"/>
      <stop offset="100%" style="stop-color:#eca0ff"/>
    </linearGradient>
  </defs>
  <rect width="120" height="120" rx="24" fill="url(#logoGrad)"/>
  <g transform="translate(30, 30) scale(2.5)" fill="#daf0cf" fill-opacity="0.86" stroke="#cc4e4e" stroke-width="1.2" stroke-linecap="round" stroke-linejoin="round">
    <rect width="8" height="4" x="8" y="2" rx="1" ry="1"/>
    <path d="M16 4h2a2 2 0 0 1 2 2v14a2 2 0 0 1-2 2H6a2 2 0 0 1-2-2V6a2 2 0 0 1 2-2h2"/>
    <path d="M12 11h4"/>
    <path d="M12 16h4"/>
    <path d="M8 11h.01"/>
    <path d="M8 16h.01"/>
  </g>
</svg>
